# Rhino

mtllib test.mtl
o object_1
usemtl diffuse_Black
v 12.700137138366699 0 -14.0416259765625
v 16.745870590209961 0 -8.0234594345092773
v 18.201629638671875 0 -0.6121068000793457
v 16.634513854980469 0 6.7183618545532227
v 12.734885215759277 0 12.441712379455566
v 6.7167181968688965 0 16.487445831298828
v -0.69463419914245605 0 17.943204879760742
v -8.0251026153564453 0 16.376089096069336
v -13.748453140258789 0 12.476460456848145
v -17.794187545776367 0 6.4582934379577637
v -19.249946594238281 0 -0.95305907726287842
v -17.682830810546875 0 -8.2835273742675781
v -13.783201217651367 0 -14.006877899169922
v -7.7650341987609863 0 -18.0526123046875
v -0.35368192195892334 0 -19.508371353149414
v 6.9767866134643555 0 -17.941255569458008
v 12.700137138366699 0 -14.0416259765625
v 12.700137138366699 17.401388168334961 -14.0416259765625
v 16.745870590209961 17.401388168334961 -8.0234594345092773
v 18.201629638671875 17.401388168334961 -0.6121068000793457
v 16.634513854980469 17.401388168334961 6.7183618545532227
v 12.734885215759277 17.401388168334961 12.441712379455566
v 6.7167181968688965 17.401388168334961 16.487445831298828
v -0.69463419914245605 17.401388168334961 17.943204879760742
v -8.0251026153564453 17.401388168334961 16.376089096069336
v -13.748453140258789 17.401388168334961 12.476460456848145
v -17.794187545776367 17.401388168334961 6.4582934379577637
v -19.249946594238281 17.401388168334961 -0.95305907726287842
v -17.682830810546875 17.401388168334961 -8.2835273742675781
v -13.783201217651367 17.401388168334961 -14.006877899169922
v -7.7650341987609863 17.401388168334961 -18.0526123046875
v -0.35368192195892334 17.401388168334961 -19.508371353149414
v 6.9767866134643555 17.401388168334961 -17.941255569458008
v 12.700137138366699 17.401388168334961 -14.0416259765625
vt 0 0
vt 0 0.064502224326133728
vt 0 0.12657161056995392
vt 0 0.18828581273555756
vt 0 0.25
vt 0 0.31450223922729492
vt 0 0.37657162547111511
vt 0 0.43828579783439636
vt 0 0.5
vt 0 0.56450223922729492
vt 0 0.62657159566879272
vt 0 0.68828582763671875
vt 0 0.75
vt 0 0.81450223922729492
vt 0 0.87657159566879272
vt 0 0.93828582763671875
vt 0 1
vt 1 0
vt 1 0.064502224326133728
vt 1 0.12657161056995392
vt 1 0.18828581273555756
vt 1 0.25
vt 1 0.31450223922729492
vt 1 0.37657162547111511
vt 1 0.43828579783439636
vt 1 0.5
vt 1 0.56450223922729492
vt 1 0.62657159566879272
vt 1 0.68828582763671875
vt 1 0.75
vt 1 0.81450223922729492
vt 1 0.87657159566879272
vt 1 0.93828582763671875
vt 1 1
vn 0.70617836713790894 0 -0.7080339789390564
vn 0.92222094535827637 0 -0.38666334748268127
vn 0.9999585747718811 0 0.0091034397482872009
vn 0.91627442836761475 0 0.40055102109909058
vn 0.7080339789390564 0 0.70617836713790894
vn 0.38666334748268127 0 0.92222094535827637
vn -0.0091034397482872009 0 0.9999585747718811
vn -0.40055102109909058 0 0.91627442836761475
vn -0.70617836713790894 0 0.7080339789390564
vn -0.92222094535827637 0 0.38666334748268127
vn -0.9999585747718811 0 -0.0091034397482872009
vn -0.91627442836761475 0 -0.40055102109909058
vn -0.7080339789390564 0 -0.70617836713790894
vn -0.38666334748268127 0 -0.92222094535827637
vn 0.0091034397482872009 0 -0.9999585747718811
vn 0.40055102109909058 0 -0.91627442836761475
vn 0.70617836713790894 0 -0.7080339789390564
vn 0.70617836713790894 0 -0.7080339789390564
vn 0.92222094535827637 0 -0.38666334748268127
vn 0.9999585747718811 0 0.0091034397482872009
vn 0.91627442836761475 0 0.40055102109909058
vn 0.7080339789390564 0 0.70617836713790894
vn 0.38666334748268127 0 0.92222094535827637
vn -0.0091034397482872009 0 0.9999585747718811
vn -0.40055102109909058 0 0.91627442836761475
vn -0.70617836713790894 0 0.7080339789390564
vn -0.92222094535827637 0 0.38666334748268127
vn -0.9999585747718811 0 -0.0091034397482872009
vn -0.91627442836761475 0 -0.40055102109909058
vn -0.7080339789390564 0 -0.70617836713790894
vn -0.38666334748268127 0 -0.92222094535827637
vn 0.0091034397482872009 0 -0.9999585747718811
vn 0.40055102109909058 0 -0.91627442836761475
vn 0.70617836713790894 0 -0.7080339789390564
f 19/19/19 2/2/2 1/1/1 18/18/18
f 20/20/20 3/3/3 2/2/2 19/19/19
f 21/21/21 4/4/4 3/3/3 20/20/20
f 22/22/22 5/5/5 4/4/4 21/21/21
f 23/23/23 6/6/6 5/5/5 22/22/22
f 24/24/24 7/7/7 6/6/6 23/23/23
f 25/25/25 8/8/8 7/7/7 24/24/24
f 26/26/26 9/9/9 8/8/8 25/25/25
f 27/27/27 10/10/10 9/9/9 26/26/26
f 28/28/28 11/11/11 10/10/10 27/27/27
f 29/29/29 12/12/12 11/11/11 28/28/28
f 30/30/30 13/13/13 12/12/12 29/29/29
f 31/31/31 14/14/14 13/13/13 30/30/30
f 32/32/32 15/15/15 14/14/14 31/31/31
f 33/33/33 16/16/16 15/15/15 32/32/32
f 34/34/34 17/17/17 16/16/16 33/33/33
o object_2
usemtl diffuse_Black
v 12.700137041760634 0 -14.0416262704169 1
v -0.55890630506022643 0 -27.2659213742968 0.70710678118654757
v -13.783201408940087 0 -14.0068780274759 1
v -27.007496512819944 0 -0.747834680655056 0.70710678118654757
v -13.74845316599909 0 12.4764604232248 1
v -0.48940981917823018 0 25.7007555271047 0.70710678118654757
v 12.734885284701631 0 12.4417121802838 1
v 25.959180388581494 0 -0.817331166537044 0.70710678118654757
cstype rat bspline
deg 2
curv 0 117.66247382901584 35 36 37 38 39 40 41 42 35
parm u 0 0 0 29.415618457253959 29.415618457253959 58.831236914507919 58.831236914507919 88.246855371761882 88.246855371761882 117.66247382901584 117.66247382901584 117.66247382901584
end
o object_3
usemtl diffuse_Black
v 12.700137041760634 17.401388771880733 -14.0416262704169 1
v -0.55890630506022643 17.401388771880729 -27.2659213742968 0.70710678118654757
v -13.783201408940087 17.401388771880733 -14.0068780274759 1
v -27.007496512819944 17.401388771880729 -0.747834680655056 0.70710678118654757
v -13.74845316599909 17.401388771880733 12.4764604232248 1
v -0.48940981917823018 17.401388771880729 25.7007555271047 0.70710678118654757
v 12.734885284701631 17.401388771880733 12.4417121802838 1
v 25.959180388581494 17.401388771880729 -0.817331166537044 0.70710678118654757
cstype rat bspline
deg 2
curv 0 117.66247382901584 43 44 45 46 47 48 49 50 43
parm u 0 0 0 29.415618457253959 29.415618457253959 58.831236914507919 58.831236914507919 88.246855371761882 88.246855371761882 117.66247382901584 117.66247382901584 117.66247382901584
end
